<svg xmlns="http://www.w3.org/2000/svg" width="509" height="572" viewBox="0 0 509 572" version="1.1"><path d="M 265 15.883 C 265 33.736, 265.373 32.955, 256.827 32.986 C 250.859 33.009, 247.546 29.394, 244.560 19.602 C 243.168 15.040, 241.088 10.111, 239.938 8.649 L 237.847 5.991 228.174 10.961 C 222.853 13.695, 217.019 17.185, 215.208 18.716 L 211.916 21.500 217.307 38.007 C 226.254 65.404, 225.158 64.476, 249.750 65.488 L 267 66.198 267 33.099 C 267 11.700, 266.647 0, 266 0 C 265.375 0, 265 5.961, 265 15.883 M 109.708 86.631 C 108.030 87.129, 107.935 89.034, 108.208 116.831 L 108.500 146.500 115.123 158 C 123.075 171.806, 123.144 172.011, 123.344 182.330 C 123.478 189.216, 123.974 191.443, 126.501 196.500 L 129.500 202.500 129.758 145.092 C 129.900 113.517, 129.863 87.530, 129.676 87.343 C 129.049 86.716, 111.524 86.091, 109.708 86.631 M 188.460 118.250 C 188.617 154.701, 188.167 152.888, 199.924 164.473 L 207 171.446 207 129.223 L 207 87 197.662 87 L 188.325 87 188.460 118.250 M 55.898 90.282 C 52.049 92.866, 48.009 99.646, 45.003 108.566 C 43.078 114.279, 43.051 114.891, 44.541 119.066 C 50.884 136.844, 52.281 151.785, 51.431 192.750 L 50.740 226 25.461 226 L 0.181 226 1.440 230.750 C 4.247 241.340, 10.175 249.453, 18.100 253.552 C 23.120 256.148, 33.847 257.964, 44.269 257.983 C 53.877 258, 54.030 258.037, 53.541 260.250 C 49.350 279.204, 48.746 281.029, 44.877 286.432 C 37.626 296.558, 35.676 302.147, 35.262 313.995 C 35.047 320.118, 35.318 325.126, 35.911 326 C 36.773 327.270, 40.981 327.500, 63.327 327.500 L 89.725 327.500 100.113 322.021 C 105.826 319.008, 112.992 315.278, 116.039 313.732 L 121.577 310.921 164.289 310.864 L 207 310.808 207 276.320 L 207 241.832 203.250 244.813 C 197.734 249.198, 186.751 260.864, 183.520 265.770 C 181.973 268.119, 180.568 269.901, 180.397 269.731 C 179.711 269.044, 182.993 255.879, 185.102 250.861 C 188.483 242.815, 195.078 233.160, 201.379 227.034 L 207 221.568 207 203.284 C 207 192.616, 206.611 185, 206.066 185 C 205.552 185, 201.164 187.655, 196.316 190.900 C 167.581 210.129, 152.005 235.397, 145.549 273.250 L 144.909 277 114.455 277 L 84 277 84 268.019 C 84 257.704, 82.553 258.901, 97.280 257.031 C 120.841 254.040, 130.523 246.811, 131.770 231.279 L 132.274 225 107.387 225.001 L 82.500 225.001 82.742 211.251 C 82.875 203.688, 83.160 184.900, 83.376 169.500 C 83.792 139.863, 84.380 135.096, 89.592 119.122 C 90.917 115.065, 91.997 110.565, 91.994 109.122 C 91.975 100.051, 86.013 92.269, 77.041 89.605 C 68.919 87.193, 60.076 87.476, 55.898 90.282 M 154.983 335.750 C 154.930 350.183, 149.215 363.158, 138.244 373.750 L 130.735 381 134.618 380.983 C 140.675 380.956, 151.278 378.401, 156.631 375.678 C 164.829 371.509, 171.721 365.207, 178.212 355.943 L 179.924 353.500 186.423 360.500 L 192.921 367.500 192.961 349.250 L 193 331 174 331 L 155 331 154.983 335.750 M 51.259 400.751 C 51.009 454.344, 52.009 486.498, 54.576 507.372 C 56.294 521.339, 60.288 541.560, 62.962 549.819 C 64.773 555.414, 64.802 553.942, 64.900 452.250 L 65 349 58.250 349.001 L 51.500 349.002 51.259 400.751 M 174.071 397.565 C 160.274 404.102, 146.047 414.005, 134.642 425.010 L 124.597 434.703 127.733 438.602 C 129.457 440.746, 143.948 455.547, 159.934 471.494 L 189 500.487 189 471.314 L 189 442.140 181.045 437.901 C 176.670 435.570, 173.281 433.354, 173.514 432.977 C 173.748 432.599, 177.327 431.054, 181.469 429.544 L 189 426.797 189 410.506 C 189 389.904, 189.438 390.284, 174.071 397.565 M 149.176 523.007 C 138.013 525.367, 127.015 533.207, 122.878 541.752 C 121.171 545.279, 120.551 548.713, 120.201 556.594 C 119.950 562.233, 120.036 568.006, 120.391 569.423 L 121.038 572 155.019 572 L 189 572 189 552.042 L 189 532.084 184.582 529.495 C 174.327 523.486, 159.641 520.794, 149.176 523.007" stroke="none" fill="#913bdf" fill-rule="evenodd"/><path d="M 267 33 L 267 66 282.841 66 C 291.554 66, 305.589 65.701, 314.032 65.336 L 329.381 64.671 333.641 60.412 C 336.774 57.279, 338.333 54.613, 339.540 50.326 C 340.442 47.122, 342.264 40.989, 343.590 36.698 C 346.684 26.681, 346.762 20.195, 343.825 17.043 C 341.490 14.536, 328.861 8.322, 324.214 7.393 C 320.727 6.695, 319.667 7.925, 318.088 14.500 C 317.428 17.250, 315.943 21.474, 314.788 23.887 C 312.953 27.722, 311.774 28.697, 305.410 31.637 C 301.407 33.487, 297.652 35, 297.066 35 C 296.352 35, 296 29.218, 296 17.500 L 296 0 281.500 0 L 267 0 267 33 M 393.200 84.200 C 391.377 86.023, 391.672 86.820, 395.967 91.699 C 404.378 101.256, 406.099 113.971, 401.488 132.498 C 395.851 155.146, 399.940 176.092, 413.374 193.393 C 415.839 196.567, 427.117 208.848, 438.436 220.685 C 457.474 240.595, 459.354 242.893, 463.531 251.354 C 467.563 259.522, 471.642 273.575, 470.753 276.240 C 470.573 276.780, 469.142 275.369, 467.573 273.105 C 462.103 265.212, 450.696 255.441, 441.850 251.071 C 434.781 247.579, 431.737 246.716, 422.011 245.447 C 415.692 244.623, 408.725 243.464, 406.528 242.873 C 395.639 239.941, 386.410 232.272, 381.561 222.129 C 378.854 216.464, 378.596 216.227, 376.279 217.283 L 373.844 218.392 374.547 237.446 C 374.934 247.926, 375.422 256.798, 375.631 257.163 C 375.840 257.528, 373.747 260.453, 370.980 263.663 C 355.595 281.516, 352.918 306.653, 364.455 324.929 C 373.133 338.676, 389.950 346.803, 403.802 343.944 C 418.209 340.971, 428.401 331.159, 430.488 318.250 C 431.342 312.970, 430.374 312.835, 424.134 317.363 C 421.585 319.213, 418.386 321.308, 417.024 322.020 C 403.222 329.227, 388.722 318.735, 388.765 301.573 C 388.785 293.609, 391.218 287.858, 396.556 283.160 C 408.059 273.034, 425.727 275.262, 437.684 288.345 C 452.518 304.576, 451.278 329.882, 434.781 347.560 C 423.296 359.868, 407.222 365.344, 389.209 363.085 C 372.883 361.038, 360.583 355.167, 348.180 343.500 C 339.704 335.528, 334.194 327.898, 329.493 317.622 C 323.918 305.435, 322.507 298.250, 322.593 282.500 C 322.662 270.007, 322.970 267.585, 325.455 260 C 328.765 249.901, 335.694 235.874, 351.251 207.786 C 363.506 185.660, 367.668 175.200, 370.467 159.500 C 372.553 147.802, 373.471 122.592, 372.533 102.750 L 371.789 87 289.395 87 L 207 87 207 129.186 C 207 168.971, 207.106 171.489, 208.868 173.436 C 209.895 174.571, 211.499 176.703, 212.432 178.173 C 214.125 180.840, 214.122 180.848, 210.564 182.537 L 207 184.228 207 202.614 C 207 219.398, 207.539 223.173, 209.485 220.024 C 210.707 218.048, 223.390 211.664, 230.720 209.336 C 234.874 208.017, 243.049 206.489, 248.886 205.940 C 264.765 204.448, 273.524 202.315, 283.500 197.513 C 292.956 192.961, 300.596 186.978, 308.039 178.297 C 310.493 175.436, 314.530 171.979, 317.012 170.615 C 323.317 167.149, 337 161.989, 337 163.077 C 337 163.573, 335.792 167.021, 334.316 170.739 C 326.882 189.464, 312.464 206.520, 296.500 215.471 C 287.139 220.721, 278.882 222.929, 262.500 224.567 C 239.423 226.873, 223.775 231.318, 211.642 239.012 L 207 241.956 207 276.621 L 207 311.287 224.750 310.723 C 244.374 310.100, 250.063 308.910, 256.817 304.018 C 262.256 300.078, 265.945 294.351, 267.615 287.254 C 270.018 277.043, 272.695 278.005, 241.750 277.964 L 214.500 277.927 220.313 272.449 C 229.539 263.753, 238.621 259.992, 255 258.084 C 259.675 257.540, 267.996 256.577, 273.490 255.945 C 278.985 255.312, 285.966 254.022, 289.003 253.076 L 294.524 251.358 292.798 261.429 C 289.384 281.345, 290.912 302.989, 297.020 321.218 C 300.716 332.251, 304.268 339.279, 311.956 350.773 L 318.064 359.905 313.134 370.202 C 287.560 423.614, 285.398 483.136, 307.460 526.368 C 315.136 541.410, 328.296 556.923, 339.813 564.508 L 344.125 567.349 348.434 562.924 C 350.804 560.491, 369.957 540.500, 390.998 518.500 C 412.038 496.500, 432.346 475.354, 436.126 471.509 L 443 464.517 443 493.213 L 443 521.909 439.250 522.514 C 412.545 526.821, 402.271 531.127, 396.536 540.418 C 393.824 544.811, 393.463 546.339, 393.151 554.735 C 392.959 559.904, 393.092 565.678, 393.447 567.567 L 394.091 571 434.551 571 L 475.011 571 474.756 485.250 C 474.502 400.136, 474.485 399.502, 472.500 399.808 C 469.088 400.333, 455.889 406.893, 450.567 410.707 C 441.196 417.424, 435.938 422.425, 421.347 438.500 C 408.481 452.675, 393.758 467, 392.056 467 C 391.516 467, 382.861 399.539, 382.960 396.103 C 382.992 394.982, 384.432 394.826, 390.250 395.310 C 414.212 397.306, 441.907 389.094, 461.709 374.120 C 491.830 351.344, 508.158 311.242, 503.084 272.500 C 500.845 255.398, 492.512 235.278, 481.660 220.770 C 479.342 217.671, 468.388 205.674, 457.317 194.109 C 436.018 171.861, 433.011 167.625, 430.973 157 C 428.901 146.193, 432.369 133.890, 439.579 126.472 C 448.029 117.778, 457.986 115.697, 467.780 120.578 C 482.876 128.101, 486.738 147.470, 475.095 157.267 C 471.447 160.336, 463.419 163, 457.818 163 C 455.718 163, 454 163.390, 454 163.867 C 454 165.474, 461.730 169.865, 467.523 171.550 C 486.099 176.950, 504.335 162.958, 508.158 140.374 C 511.852 118.551, 497.562 95.578, 476.187 88.976 C 467.181 86.194, 457.706 86.458, 439.698 89.993 C 431.312 91.638, 423.336 93.067, 421.975 93.168 C 420.614 93.268, 413.991 91.022, 407.258 88.175 C 400.525 85.329, 394.878 83, 394.708 83 C 394.539 83, 393.860 83.540, 393.200 84.200 M 130 144.930 L 130 202.771 136.593 208.938 C 140.219 212.330, 143.698 214.934, 144.325 214.725 C 144.952 214.516, 148.834 209.961, 152.952 204.603 L 160.438 194.861 158.052 183.680 C 155.957 173.863, 155.587 168.782, 155.015 142 C 154.406 113.453, 154.218 111.127, 152.079 105.668 C 148.432 96.356, 143.771 91.947, 133.886 88.460 L 130 87.089 130 144.930 M 219.451 123.544 C 218.667 129.824, 219.410 135.959, 221.429 139.863 C 222.183 141.322, 229.334 149.122, 237.318 157.197 C 253.657 173.720, 254.839 174.352, 264.297 171.602 C 275.990 168.203, 284.780 159.123, 288.959 146.128 L 291.179 139.224 300.839 138.056 C 321.154 135.599, 328.206 132.473, 332.485 124.029 C 333.868 121.299, 335 118.827, 335 118.533 C 335 118.240, 309.157 118, 277.572 118 L 220.144 118 219.451 123.544 M 193 348.979 L 193 366.959 197.619 371.216 C 211.594 384.098, 231.109 397.458, 249.158 406.499 C 261.160 412.511, 272.445 416.888, 273.423 415.910 C 273.669 415.664, 275.637 409.063, 277.796 401.240 L 281.721 387.018 265.410 378.408 C 245.429 367.860, 236.925 362.292, 226.318 352.813 C 221.818 348.791, 214.502 342.238, 210.062 338.250 C 202.570 331.523, 201.663 331, 197.494 331 L 193 331 193 348.979 M 65.237 454.950 C 65.434 534.318, 65.794 561.194, 66.672 562.072 C 68.094 563.494, 70.496 556.257, 74.438 538.681 C 81.487 507.255, 83 484.203, 83 408.267 L 83 349 73.987 349 L 64.973 349 65.237 454.950 M 335.354 395.694 C 327.027 410.584, 323.093 425.926, 322.301 446.591 C 321.657 463.418, 322.722 473.366, 326.599 486.746 C 329.170 495.617, 334.752 507.791, 338.169 511.979 C 340.164 514.425, 340.212 514.431, 341.707 512.479 C 344.753 508.502, 350.996 494.277, 353.425 485.781 C 357.138 472.791, 358.337 461.465, 357.687 445.500 C 357.054 429.947, 355.250 420.203, 350.930 409 C 347.902 401.147, 341.181 389, 339.865 389 C 339.443 389, 337.413 392.012, 335.354 395.694 M 189 409.994 C 189 419.113, 189.397 426, 189.923 426 C 190.831 426, 219.174 415.160, 219.736 414.597 C 220.031 414.302, 211.854 408.744, 197.250 399.315 L 189 393.988 189 409.994 M 189 471.162 L 189 500.185 208.087 519.842 L 227.175 539.500 221.337 539.819 C 213.970 540.221, 205.528 538.606, 196.250 535.018 L 189 532.214 189 552.107 L 189 572 238.500 572 C 282.940 572, 288 571.839, 288 570.421 C 288 568.061, 283.092 556.248, 279.734 550.525 C 274.614 541.798, 266.630 532.750, 250.504 517.397 C 233.415 501.128, 221.180 487.003, 223.251 485.934 C 223.938 485.579, 234.400 484.751, 246.500 484.095 C 258.600 483.438, 269.408 482.716, 270.519 482.489 C 272.521 482.081, 272.525 481.946, 270.986 465.789 C 269.543 450.644, 269.296 449.515, 267.467 449.713 C 266.385 449.831, 260.942 450.618, 255.372 451.463 C 234.787 454.586, 213.681 452.169, 194.898 444.537 L 189 442.140 189 471.162" stroke="none" fill="#7931bd" fill-rule="evenodd"/></svg>