<svg xmlns="http://www.w3.org/2000/svg" xmlns:xlink="http://www.w3.org/1999/xlink" viewBox="0 0 10146.15 11425.28"><defs><style>.cls-1{fill:url(#linear-gradient);}.cls-2{fill:url(#linear-gradient-2);}.cls-3{fill:url(#linear-gradient-3);}.cls-4{fill:url(#linear-gradient-4);}.cls-5{fill:url(#linear-gradient-5);}.cls-6{fill:url(#linear-gradient-6);}</style><linearGradient id="linear-gradient" y1="6542.46" x2="10146.15" y2="6542.46" gradientUnits="userSpaceOnUse"><stop offset="0" stop-color="#973be8"/><stop offset="1" stop-color="#6c2ca9"/></linearGradient><linearGradient id="linear-gradient-2" x1="2386.83" y1="9650.6" x2="5736.9" y2="9650.6" xlink:href="#linear-gradient"/><linearGradient id="linear-gradient-3" x1="4233.63" y1="651.63" x2="6896.75" y2="651.63" xlink:href="#linear-gradient"/><linearGradient id="linear-gradient-4" x1="1010.29" y1="9120.49" x2="1633.2" y2="9120.49" xlink:href="#linear-gradient"/><linearGradient id="linear-gradient-5" x1="2608.85" y1="7470.17" x2="5601.19" y2="7470.17" xlink:href="#linear-gradient"/><linearGradient id="linear-gradient-6" x1="2142.86" y1="3017.27" x2="3178.34" y2="3017.27" xlink:href="#linear-gradient"/></defs><g id="Layer_2" data-name="Layer 2"><g id="Layer_1-2" data-name="Layer 1"><path class="cls-1" d="M7502,5170.89c-14.29-315.26-25.26-557.46-36.24-799.66l87.45-33.91c152.47,430.14,469,552.79,871.66,581.75,432.07,31.08,740.11,305.92,985.46,666.86-12.07-343.56-136.16-634.09-361-876.91-226.35-244.4-466.72-475.25-690.48-722-349.84-385.84-481.4-843.69-334.39-1352.22,100.5-347.68,79.5-645.64-201.21-901.79l45.91-66.65,515.6,217.36c350.66-54.43,645.48-155.38,931.16-133.09,602.69,47,985.11,700.41,769.66,1242.31-183.56,461.71-671.42,595.06-1025.42,280.3,337.69-1.95,527.67-122.09,568.19-359.34,36.56-214.11-112.13-453-336.33-540.26-291.4-113.45-636.14,122-700.84,483.47-48.89,273.16,31.55,510.7,215.83,708.32,197.27,211.55,402.44,415.33,603,623.66,661.73,687.32,825.94,1649.07,427.85,2501.6C9450.65,7519.76,8612.65,7985,7681.67,7888.21c-24.94-2.59-50.36-.32-63.47-.32q93.17,744.85,185,1479.48c560.15-382.5,883.52-1144.68,1657.86-1371.45v3422.66H7869.63c-112-657.49,85.43-856.24,972.77-966.78V9268.72L6860.05,11333.21c-1149.56-718.1-1354.57-2615.47-496.27-4139.27C5862.55,6571.53,5683.91,5860.47,5891,5006.38c-537.74,229.37-1182.11-27.3-1633.76,560.83H5347c-7.91,402.22-259.87,629.85-691,632.35-726.43,4.21-1453-6.63-2179.26,6.48-119,2.15-237.39,92.48-354.45,145.8-131.61,59.94-258.18,167.47-392.59,177.93-333.91,26-671,8.55-1022,8.55-52.7-311.69-14.85-568.85,193.14-818.78,105.46-126.72,110.62-341.37,178-574.81C563.07,5167.18,116.43,5152,0,4529H1019.4c-39.39-698.69,97.71-1377.9-101.85-2046.78-22.67-76-76.95-167.22-54.71-227.23,60.42-163.08,118.79-379,244.45-450,126.3-71.27,353.75-38.92,498.75,31.14,187.76,90.73,242.27,313.28,167.79,511C1510.07,3047.24,1687.74,3770.06,1613.2,4513H2614.74c-3.91,455.6-197,581.57-966.77,651.24V5557.8h1242.5c106.27-899.29,561.7-1554,1379.85-1934.63-126-315.24-560.73-406.49-521.76-836.14,30.91-340.73,6.23-686.78,6.23-1044.87H7410.62c19.55,741.89,99.8,1483.08-281.89,2170.32-192.56,346.71-392.5,690.5-561.63,1049.26C6057.2,6043.39,6841,7324.21,7978.1,7281.58c562.94-21.1,1008-489.85,975.6-1027.54-27-447.82-398.89-787.26-794.45-725.08-288.85,45.41-464.55,302.8-410.19,600.92,46.27,253.77,254.29,422.11,486.31,357.82,124.15-34.4,230.63-135.95,347.66-208.79,3.64,232.21-113,405.88-317.76,516.11-241.71,130.11-487.19,108.86-717.07-33.34C7119,6496.2,7004.82,5889.08,7297.39,5426,7366.89,5316,7460.39,5222,7502,5170.89ZM4378.74,2357c-55.15,253.71-40.57,454.23,160.3,615.88,128.3,103.24,246.67,225.31,348.16,356.34,126.94,163.89,272.84,161.3,438.3,97.08,286.47-111.21,420.86-348.83,484-633.2,678-71.29,769.06-115.19,891.47-436.1ZM3568.83,5462.9c409-686.69,999.29-929.43,1733.18-967.31,588.81-30.39,1022.76-393.17,1309.84-923.17,50.46-93.17,80.27-198.13,144.88-361.54-237.89,113.38-458.36,149-562.79,281.2-318.43,403.12-703.82,588.68-1206.17,610.23C4223.21,4135.11,3611.25,4726.23,3568.83,5462.9Zm3217.34,4848c496.77-685.41,492.66-1926-8.47-2558.72C6276.75,8418.77,6281,9706.61,6786.17,10310.93Z"/><path class="cls-2" d="M5736.9,11425.28H2403.28c-36.85-335-36.7-654.19,273.24-837.92,310.69-184.18,650.19-177.85,964-2.23,277.69,155.43,555.78,260.87,916.27,218.18L2487,8710.12c331.49-397.68,718.56-648.08,1154.44-826.57,33.91-13.88,88.75-8.08,120.25,11.57,203.29,126.8,402.8,260,604.51,391.74L3405.3,8657.68c648.44,409.91,1270.83,493.57,1953.11,334.85,19.86,205,38.86,401,62.53,645.1l-1027.35,66.16C4776.65,10306.78,5532.83,10626.8,5736.9,11425.28Z"/><path class="cls-3" d="M4233.63,424.81c63.79-45.49,116.65-90.09,175.5-123.61,104.75-59.67,213.13-112.63,318.06-167.38,210.49,148.79,55.57,672.37,554.73,507.36V0h607.17V731.15c158.48-77,296.82-101.9,361.14-186.25,79.74-104.58,98.17-258.41,140.59-383.59,32.39-6,51.21-16.08,64.49-11,510.31,196.08,510.18,196.24,338.47,729-27.14,84.18-36.19,181.58-84.68,249.48-51.34,71.88-138.82,163-212.2,164.55q-907.23,19.82-1815,.38c-74.33-1.57-182.89-86.24-213.21-159.57C4375.06,907.61,4311.58,667.94,4233.63,424.81Z"/><path class="cls-4" d="M1010.29,6986.7H1632c-54,1429.64,151.67,2866.89-303.16,4267.59C857.83,9871.24,1077.42,8435.37,1010.29,6986.7Z"/><path class="cls-5" d="M2608.85,7605.21c366.41-261.87,494.94-574.16,479.21-977.76,305.57,0,597-5.37,887.84,4.78,54.66,1.91,111.82,60.25,160,102,213,184.49,408.1,395.58,638.29,553,256.09,175.08,543.18,302.39,827,456-54.55,200.56-104.95,385.85-155.33,571.1C4873.49,8165.4,4001.33,7571.25,3578,7041.68,3371,7384,3099,7616.28,2608.85,7605.21Z"/><path class="cls-6" d="M2147.36,1742.92c691.91-53.19,934.18,178.73,932,857.52-.81,256.63-10.68,513.86,3.33,769.67,8.5,155.34,54.8,308.49,95.63,523.18L2868,4298.93c-250.45-190.17-456.13-384-406.8-752.38,14-104.39-80.87-226.78-133.31-337.16C2272.39,3092.51,2163,2983,2155.7,2865.19,2133,2497.74,2147.36,2127.86,2147.36,1742.92Z"/></g></g></svg>